# xmcd
#
# Track frame offsets:
#        150
#        29660
#        48292
#        79902
#        106907
#        128380
#        149672
#        168777
#        196817
#        213672
#        238282
#        271510
#        303327
#
# Disc length: 4440 seconds
#
# Revision: 1
# Processed by: cddbd v1.5.1PL2 Copyright (c) Steve Scherf et al.
# Submitted via: ExactAudioCopy v0.95b3
#
DISCID=b011560d
DTITLE=The Chemical Brothers - Push The Button
DYEAR=2005
DGENRE=Techno
TTITLE0=Galvanize (feat. Q-Tip)
TTITLE1=The Boxer (feat. Tim Burgess)
TTITLE2=Believe (feat. Kele Okereke)
TTITLE3=Hold Tight London (feat. Anna-Lynne Williams)
TTITLE4=Come Inside
TTITLE5=The Big Jump
TTITLE6=Left Right (feat. Anwar Superstar)
TTITLE7=Close Your Eyes (feat. The Magic Numbers)
TTITLE8=Shake Break Bounce
TTITLE9=Marvo Ging
TTITLE10=Surface To Air
TTITLE11=Giant
TTITLE12=Data Track
EXTD=YEAR: 2004
EXTT0=
EXTT1=
EXTT2=
EXTT3=
EXTT4=
EXTT5=
EXTT6=
EXTT7=
EXTT8=
EXTT9=
EXTT10=
EXTT11=
EXTT12=
PLAYORDER=
